<svg width="16" height="16" viewBox="0 0 16 16" fill="none" xmlns="http://www.w3.org/2000/svg">
<path d="M15.948 14.2287C15.948 14.6846 15.7669 15.1218 15.4446 15.4442C15.1223 15.7665 14.6851 15.9477 14.2293 15.9477H1.71875C1.26289 15.9477 0.825716 15.7665 0.503395 15.4442C0.181074 15.1218 -4.82096e-09 14.6846 0 14.2287L0 1.71875C0.000198756 1.26297 0.181345 0.825915 0.50363 0.50363C0.825915 0.181345 1.26297 0.000198756 1.71875 0L14.2293 0C14.6851 0.000132539 15.1221 0.181257 15.4444 0.503556C15.7667 0.825856 15.9479 1.26295 15.948 1.71875V14.2287Z" fill="#FF7A15"/>
<path d="M13.4667 3.535C13.2321 3.33461 12.9275 3.23558 12.6199 3.25968C12.3123 3.28377 12.0268 3.42902 11.8262 3.6635L6.81624 9.52275L4.12099 7.27275C4.01429 7.18097 3.89041 7.11131 3.75655 7.06782C3.62269 7.02434 3.48152 7.00789 3.34125 7.01945C3.20098 7.031 3.0644 7.07032 2.93946 7.13512C2.81452 7.19992 2.70371 7.28891 2.61347 7.39692C2.52322 7.50492 2.45534 7.62979 2.41378 7.76426C2.37222 7.89873 2.3578 8.04012 2.37137 8.18021C2.38493 8.3203 2.42621 8.4563 2.49279 8.58029C2.55938 8.70429 2.64995 8.81382 2.75924 8.9025L6.37024 11.9175C6.48158 12.0103 6.61085 12.0792 6.74999 12.1199C6.88914 12.1606 7.03517 12.1722 7.17899 12.154C7.33151 12.1422 7.48022 12.1005 7.61659 12.0311C7.75296 11.9618 7.87433 11.8663 7.97374 11.75L13.5945 5.175C13.7947 4.94026 13.8935 4.63569 13.8694 4.32813C13.8452 4.02057 13.7001 3.73515 13.4657 3.5345" fill="#F4F4F4"/>
</svg>
