<svg width="17" height="17" viewBox="0 0 17 17" fill="none" xmlns="http://www.w3.org/2000/svg">
<path d="M10.4771 8.25578L16.0304 2.70091C16.1805 2.556 16.3001 2.38265 16.3825 2.19099C16.4648 1.99933 16.5081 1.79319 16.5099 1.5846C16.5118 1.37601 16.472 1.16915 16.393 0.976084C16.314 0.78302 16.1974 0.60762 16.0499 0.46012C15.9024 0.312619 15.727 0.195971 15.5339 0.116983C15.3409 0.0379941 15.134 -0.00175327 14.9254 5.93144e-05C14.7168 0.0018719 14.5107 0.0452085 14.319 0.12754C14.1273 0.209872 13.954 0.32955 13.8091 0.479591L8.25421 6.03289L2.70091 0.479591C2.556 0.32955 2.38265 0.209872 2.19099 0.12754C1.99933 0.0452085 1.79319 0.0018719 1.5846 5.93144e-05C1.37601 -0.00175327 1.16915 0.0379941 0.976084 0.116983C0.78302 0.195971 0.60762 0.312619 0.46012 0.46012C0.312619 0.60762 0.195971 0.78302 0.116983 0.976084C0.0379941 1.16915 -0.00175327 1.37601 5.93144e-05 1.5846C0.0018719 1.79319 0.0452085 1.99933 0.12754 2.19099C0.209872 2.38265 0.32955 2.556 0.479591 2.70091L6.03289 8.25421L0.479591 13.8091C0.32955 13.954 0.209872 14.1273 0.12754 14.319C0.0452085 14.5107 0.0018719 14.7168 5.93144e-05 14.9254C-0.00175327 15.134 0.0379941 15.3409 0.116983 15.5339C0.195971 15.727 0.312619 15.9024 0.46012 16.0499C0.60762 16.1974 0.78302 16.314 0.976084 16.393C1.16915 16.472 1.37601 16.5118 1.5846 16.5099C1.79319 16.5081 1.99933 16.4648 2.19099 16.3825C2.38265 16.3001 2.556 16.1805 2.70091 16.0304L8.25421 10.4771L13.8091 16.0304C13.954 16.1805 14.1273 16.3001 14.319 16.3825C14.5107 16.4648 14.7168 16.5081 14.9254 16.5099C15.134 16.5118 15.3409 16.472 15.5339 16.393C15.727 16.314 15.9024 16.1974 16.0499 16.0499C16.1974 15.9024 16.314 15.727 16.393 15.5339C16.472 15.3409 16.5118 15.134 16.5099 14.9254C16.5081 14.7168 16.4648 14.5107 16.3825 14.319C16.3001 14.1273 16.1805 13.954 16.0304 13.8091L10.4771 8.25421V8.25578Z" fill="#6A3091"/>
</svg>
