<svg width="23" height="23" viewBox="0 0 23 23" fill="none" xmlns="http://www.w3.org/2000/svg">
<g clip-path="url(#clip0)">
<path d="M0.565742 22.1278L2.10701 16.6096C1.15934 14.9949 0.654239 13.1607 0.65945 11.2855C0.65945 5.40958 5.53329 0.632278 11.5216 0.632278C14.4271 0.632278 17.1557 1.74105 19.2021 3.75414C21.2537 5.76724 22.3837 8.44461 22.3785 11.2906C22.3785 17.1665 17.5045 21.9439 11.5164 21.9439H11.5111C9.69387 21.9439 7.90778 21.4943 6.31961 20.646L0.565742 22.1278ZM6.5904 18.7146L6.91842 18.9088C8.30354 19.7161 9.89171 20.1402 11.5111 20.1453H11.5164C16.4892 20.1453 20.5403 16.1752 20.5403 11.2906C20.5403 8.9249 19.603 6.70234 17.9003 5.02636C16.1976 3.35047 13.9272 2.4308 11.5164 2.4308C6.53829 2.4308 2.48714 6.40084 2.48714 11.2854C2.48714 12.9563 2.96098 14.5862 3.86705 15.9964L4.08052 16.3336L3.16933 19.5986L6.5904 18.7146Z" fill="black" fill-opacity="0.15"/>
<path d="M1.05845 21.5582L2.52919 16.2951C1.62229 14.7514 1.14522 13.0007 1.14587 11.2189C1.14587 5.61773 5.79474 1.06117 11.4977 1.06117C14.2695 1.06117 16.8665 2.12084 18.8206 4.03828C20.7747 5.95582 21.8496 8.50915 21.8496 11.2239C21.8496 16.825 17.2008 21.3815 11.4978 21.3815H11.4926C9.75955 21.3815 8.05737 20.9526 6.54548 20.1453L1.05845 21.5583V21.5582Z" fill="url(#paint0_linear)"/>
<path d="M0.683083 21.9265L2.20522 16.4768C1.26931 14.8823 0.770411 13.0707 0.775622 11.2189C0.775622 5.41592 5.589 0.697861 11.503 0.697861C14.3724 0.697861 17.067 1.79279 19.0881 3.78094C21.1142 5.76909 22.2301 8.41322 22.225 11.2239C22.225 17.0268 17.4116 21.7449 11.4977 21.7449H11.4926C9.70137 21.7442 7.93876 21.3036 6.36552 20.4632L0.683083 21.9266V21.9265ZM6.6329 18.5558L6.95687 18.7475C8.32483 19.5448 9.89324 19.9637 11.4926 19.9687H11.4978C16.4088 19.9687 20.4097 16.0479 20.4097 11.2239C20.4097 8.8876 19.4841 6.69255 17.8025 5.03746C16.1208 3.38237 13.8787 2.47408 11.4978 2.47408C6.58151 2.47408 2.58067 6.39483 2.58067 11.2189C2.58067 12.8689 3.04858 14.4786 3.94342 15.8712L4.15429 16.2043L3.25432 19.4287L6.6329 18.5558Z" fill="white"/>
<path d="M8.81853 6.81368C8.61791 6.37465 8.40704 6.36451 8.21684 6.35949C8.06258 6.35446 7.88263 6.35446 7.70258 6.35446C7.52262 6.35446 7.23458 6.42005 6.98778 6.68241C6.74089 6.94486 6.05179 7.58066 6.05179 8.87756C6.05179 10.1693 7.01348 11.4207 7.14716 11.5972C7.28085 11.7739 9.00361 14.5139 11.724 15.5685C13.9867 16.4466 14.4496 16.2699 14.9381 16.2245C15.4318 16.1791 16.522 15.5887 16.7482 14.9731C16.9693 14.3575 16.9693 13.8327 16.9025 13.7217C16.8357 13.6106 16.6557 13.5451 16.3882 13.4138C16.1209 13.2827 14.8044 12.6469 14.5576 12.5561C14.3107 12.4653 14.1307 12.4249 13.9559 12.6872C13.7758 12.9496 13.2617 13.54 13.1073 13.7167C12.9531 13.8932 12.7937 13.9134 12.5262 13.7823C12.2588 13.6511 11.3949 13.3735 10.3716 12.4753C9.57448 11.7789 9.03451 10.916 8.88016 10.6537C8.7259 10.3913 8.8648 10.2499 8.99849 10.1188C9.11672 10.0027 9.26586 9.81098 9.39964 9.65961C9.53333 9.50824 9.5796 9.39725 9.66701 9.22058C9.75443 9.044 9.71328 8.89263 9.64644 8.76145C9.5796 8.63018 9.05509 7.33337 8.81853 6.81368Z" fill="white"/>
</g>
<defs>
<linearGradient id="paint0_linear" x1="11.4536" y1="21.5568" x2="11.4536" y2="1.05994" gradientUnits="userSpaceOnUse">
<stop stop-color="#20B038"/>
<stop offset="1" stop-color="#60D66A"/>
</linearGradient>
<clipPath id="clip0">
<rect width="23" height="22.6567" fill="white"/>
</clipPath>
</defs>
</svg>
